# xmcd
#
# Track frame offsets:
#	150
#	19541
#	36886
#	56930
#	74907
#	91851
#	109882
#	126213
#	145508
#	160976
#	177931
#	197636
#
# Disc length: 2807 seconds
#
# Revision: 1
# Processed by: cddbd v1.5.2PL0 Copyright (c) Steve Scherf et al.
# Submitted via: audiograbber 1.83.01
#
DISCID=aa0af50c
DTITLE=Raul Malo - Today
DYEAR=2002
DGENRE=latin
TTITLE0=Today
TTITLE1=I See You
TTITLE2=Every Little Thing About You
TTITLE3=Ya Tu Veras
TTITLE4=Are We Almost There?
TTITLE5=No Me Preguntes Tanto
TTITLE6=Takes Two to Tango
TTITLE7=De Tí Me Olvidaré
TTITLE8=Ocho Versos
TTITLE9=I Said I Love You
TTITLE10=Let's Not Say Goodbye Anymore
TTITLE11=Since When
EXTD=
EXTT0=
EXTT1=
EXTT2=
EXTT3=
EXTT4=
EXTT5=
EXTT6=
EXTT7=
EXTT8=
EXTT9=
EXTT10=
EXTT11=
PLAYORDER=
